<svg width="24" height="24" viewBox="0 0 24 24" fill="none" xmlns="http://www.w3.org/2000/svg">
<path fill-rule="evenodd" clip-rule="evenodd" d="M15.12 12.9288C15.8 14.8989 16.26 16.923 16.5 19C18.591 17.6519 20.01 15.4352 20.28 12.9288C18.253 12.79 16.892 12.802 15.12 12.9288M13.94 9.91315C14.14 10.3395 14.367 10.8788 14.62 11.5308C16.441 11.3591 18.473 11.3611 20.3 11.4509C20.193 9.64055 19.54 8.02888 18.34 6.61793C17.473 7.90906 16.007 9.00746 13.94 9.91315M9.96 3.96178C11.133 5.17302 12.22 6.68483 13.22 8.49521C15.033 7.73631 16.4 6.77071 17.32 5.5994C15.089 3.75607 12.34 3.30972 9.96 3.96178M6.9 18.5806C9.3 20.4469 12.276 20.7994 14.94 19.7788C14.673 17.5021 14.153 15.2983 13.38 13.1684C10.78 13.7326 8.035 16.3398 6.9 18.5806M3.92 9.95308C5.09 10.0589 8.288 10.0749 11.56 9.09433C10.547 7.29693 9.433 5.7991 8.22 4.60084C6.073 5.68627 4.524 7.69835 3.92 9.95308M5.76 17.5021C7.012 15.0537 10.125 12.3975 12.86 11.7904C12.66 11.3241 12.467 10.9047 12.28 10.5322C9.508 11.418 6.348 11.7505 3.68 11.6107C3.68 13.7416 4.029 15.543 5.76 17.5021M2 12.0101C2 8.26253 4.008 5.09213 6.98 3.36263C13.603 -0.490778 22 4.2803 22 12.0101C22 15.7577 19.992 18.9281 17.02 20.6576C13.948 22.445 10.061 22.45 6.98 20.6576C4.005 18.9271 2 15.7547 2 12.0101" fill="url(#paint0_linear)"/>
<defs>
<linearGradient id="paint0_linear" x1="2" y1="22" x2="22" y2="22" gradientUnits="userSpaceOnUse">
<stop stop-color="#667EEA"/>
<stop offset="1" stop-color="#764BA2"/>
</linearGradient>
</defs>
</svg>
